<?xml version="1.0" encoding="UTF-8"?>
<svg width="32" height="32" viewBox="0 0 32 32" fill="none" xmlns="http://www.w3.org/2000/svg">
  <rect width="32" height="32" rx="8" fill="#CBB7F8"/>
  <path d="M16 10c-3.3 0-6 2.5-6 5.8 0 2.1 1.2 3.3 2.1 3.3.3 0 .6-.2.7-.5.2-.6.5-2 .6-2.1.1-.2.1-.3 0-.5-.1-.2-.2-.6 0-.8.2-.2.5-.2.7-.2.8 0 1.5.8 1.5 2 0 1-.6 1.7-1.3 1.7-.3 0-.6-.2-.5-.6.1-.4.3-1 .3-1.3 0-.3-.2-.4-.5-.4-.4 0-.6.4-.6 1 0 .8.5 1.5 1.6 1.5 1.2 0 2-1.2 2-2.7 0-1.1-.7-1.9-2-1.9-.8 0-1.5.5-1.7 1.1-.2.5 0 1 .2 1.2.1.1.1.2.1.3-.1.3-.2.8-.2 1-.1.2-.1.4.1.5.2.1.7.3 1.3.3 1.7 0 3-1.4 3-3.1 0-1.7-1.4-3.1-3.2-3.1z" fill="#fff"/>
</svg>
